<svg viewBox="0 0 800 600" xmlns="http://www.w3.org/2000/svg" role="img" aria-label="Kök Çay ambalaj serisi kapak görseli">
  <rect width="800" height="600" fill="#ECEFE2"/>

  <!-- organik dal / yaprak çizimi -->
  <g fill="none" stroke="#3F5B43" stroke-width="4" stroke-linecap="round">
    <path d="M40,40 C220,120 300,260 420,520"/>
    <path d="M120,90 C150,70 185,68 205,90"/>
    <path d="M210,170 C245,150 282,150 305,175"/>
    <path d="M290,300 C330,285 368,288 392,312"/>
    <path d="M350,420 C392,408 430,412 452,438"/>
  </g>
  <g fill="#3F5B43">
    <ellipse cx="150" cy="78" rx="22" ry="11" transform="rotate(-25 150 78)"/>
    <ellipse cx="245" cy="158" rx="24" ry="12" transform="rotate(-18 245 158)"/>
    <ellipse cx="330" cy="290" rx="24" ry="12" transform="rotate(-12 330 290)"/>
    <ellipse cx="395" cy="410" rx="22" ry="11" transform="rotate(-8 395 410)"/>
  </g>

  <!-- ayakta duran paket silüetleri -->
  <g>
    <path d="M520,260 q0,-28 28,-28 h84 q28,0 28,28 v260 q0,20 -20,20 h-100 q-20,0 -20,-20 Z" fill="#F7F8F1" stroke="#3F5B43" stroke-width="3"/>
    <path d="M520,260 q0,-28 28,-28 h84 q28,0 28,28 v40 h-140 Z" fill="#D9E0C8"/>
    <rect x="548" y="320" width="84" height="3" fill="#3F5B43" opacity="0.35"/>

    <path d="M650,330 q0,-22 22,-22 h66 q22,0 22,22 v190 q0,16 -16,16 h-78 q-16,0 -16,-16 Z" fill="#F2F4E9" stroke="#3F5B43" stroke-width="3"/>
    <path d="M650,330 q0,-22 22,-22 h66 q22,0 22,22 v30 h-110 Z" fill="#3F5B43" opacity="0.85"/>
  </g>

  <!-- markalama -->
  <text x="40" y="130" font-family="Georgia, 'Times New Roman', serif" font-weight="700" font-size="80" fill="#2E4131" letter-spacing="1">KÖK</text>
  <text x="42" y="160" font-family="Arial, Helvetica, sans-serif" font-weight="700" font-size="16" letter-spacing="3" fill="#5C7560">BİTKİSEL ÇAY — AMBALAJ SERİSİ</text>

  <!-- tohum/desen noktaları -->
  <g fill="#5C7560" opacity="0.5">
    <circle cx="470" cy="540" r="4"/>
    <circle cx="486" cy="552" r="4"/>
    <circle cx="502" cy="540" r="4"/>
    <circle cx="518" cy="552" r="4"/>
  </g>

  <!-- kayıt işaretleri -->
  <g stroke="#2E4131" stroke-width="1.5" opacity="0.4">
    <path d="M24,16 v16 M16,24 h16"/>
    <path d="M776,16 v16 M768,24 h16"/>
    <path d="M24,584 v-16 M16,576 h16"/>
    <path d="M776,584 v-16 M768,576 h16"/>
  </g>
  <g opacity="0.85">
    <circle cx="40" cy="40" r="5" fill="#00AEEF"/>
    <circle cx="56" cy="40" r="5" fill="#FF2D6F"/>
    <circle cx="72" cy="40" r="5" fill="#FFD400"/>
    <circle cx="88" cy="40" r="5" fill="#2E4131"/>
  </g>
</svg>
